<svg xmlns="http://www.w3.org/2000/svg" viewBox="0 0 499.14 499.64"><defs><style>.cls-1{fill:#fff;}</style></defs><g id="Layer_2" data-name="Layer 2"><g id="Layer_1-2" data-name="Layer 1"><path class="cls-1" d="M0,338.25q0-43.74,0-87.49c0-19.2-1-38.38,5.18-57.18,5-15.15,8.58-30.76,16-45,6-11.47,11.66-23.16,18.5-34.12,14.84-23.79,33.22-44.64,56.08-61,14-10,28.5-19.73,43.74-27.75,18.25-9.62,37.89-16,58.23-20.37A254.75,254.75,0,0,1,246.86,0a240.51,240.51,0,0,1,74.35,10.8c18.54,5.64,35.92,13.68,52.76,23.25a241.43,241.43,0,0,1,55.68,43.46,256.46,256.46,0,0,1,40.09,55.73,225.9,225.9,0,0,1,19.9,49.35c4,15.2,7.36,31,7.91,46.63C499,269,498.74,308.86,499,348.67c.18,32.66-.15,65.32.17,98,.23,23.6-9.88,40.94-31.63,49.48-15.3,6-31.23,4.35-45.27-5.52-14.49-10.19-21.74-24-21.4-42.07.51-27,.24-54,.27-81,0-7.21-2.19-9.45-9.08-9.44-51.49.06-103-.25-154.47.32a148.24,148.24,0,0,0-84.36,26.81c-16.09,11.15-29.82,24.69-40.27,41.07-6,9.44-10.41,20-14.72,30.42-5.18,12.5-9.88,24.83-21.4,33.5-15,11.3-42.71,11.74-58.09-.29C10.93,483.87,6.52,475.61,1,468c-1.34-1.86-.91-5.15-.91-7.78q-.07-61,0-122Zm308.57-77.4v0h42.48c13.66,0,27.32.1,41,0,7,0,10-3.5,9.32-10.41-.47-4.47-1.37-8.93-1.45-13.4-.31-19.6-6.39-37.77-15-54.92a152.25,152.25,0,0,0-84.5-75.65c-20.28-7.33-41.31-9.08-62.92-7.91-28.62,1.55-53.72,11.78-76.59,28.18A149.19,149.19,0,0,0,120.4,169.6c-11.19,18.08-19.81,37.25-21.41,58.47-1.75,23-1.6,46.23-2.1,69.36-.12,5.31,2.92,6.57,7.57,3.69,6.21-3.84,12.3-7.95,18.79-11.27,9.31-4.77,18.72-9.5,28.5-13.17,9.61-3.61,19.81-5.65,29.62-8.77,15.89-5.05,32.34-6.49,48.77-6.89C256.28,260.39,282.44,260.85,308.6,260.85Z"/></g></g></svg>